<?xml version='1.0' encoding='iso-8859-1'?>
<!-- Uploaded to: SVG Repo, www.svgrepo.com, Generator: SVG Repo Mixer Tools -->
<svg fill="#000000" height="800px" width="800px" version="1.1" xmlns="http://www.w3.org/2000/svg" viewBox="0 0 463.001 463.001" xmlns:xlink="http://www.w3.org/1999/xlink" enable-background="new 0 0 463.001 463.001">
  <g>
    <path d="m455.5,292.001h-73.838l24.09-36.357c0.519-0.782 0.885-1.654 1.082-2.571l13.714-63.999c0.867-4.05-1.712-8.037-5.763-8.905-4.04-0.867-8.036,1.711-8.905,5.762l-13.416,62.61-28.795,43.459h-165.339l45.69-34.516c0.922-0.696 1.671-1.597 2.188-2.63l46.524-93.049 41.418-11.834-13.749,82.492-22.901,30.538c-2.485,3.313-1.813,8.015 1.5,10.5 1.35,1.012 2.929,1.5 4.494,1.5 2.28,0 4.532-1.036 6.006-3l24-32c0.721-0.961 1.2-2.082 1.398-3.267l15.528-93.169 36.062-28.849 69.84-7.76c4.117-0.458 7.083-4.166 6.626-8.282s-4.16-7.083-8.282-6.626l-72,8c-1.411,0.157-2.748,0.711-3.857,1.598l-38.823,31.059-54.552,15.586c-2.021,0.578-3.707,1.977-4.647,3.857l-17.943,35.886c-0.032,0.003-0.063,0.001-0.095,0.005l-80,8c-2.561,0.256-4.812,1.807-5.962,4.109l-14.683,29.365-61.243,22.966c-1.594,0.598-2.937,1.72-3.808,3.182l-21.667,36.341h-67.892c-4.143,0-7.5,3.358-7.5,7.5s3.357,7.5 7.5,7.5h448c4.143,0 7.5-3.358 7.5-7.5s-3.357-7.501-7.5-7.501zm-267.141-81.449l66.557-6.656-21.34,42.679-60.132,45.425h-35.838l19.197-19.197c0.569-0.57 1.044-1.228 1.404-1.949l30.152-60.302zm-79.763,55.048l43.655-16.37-6.915,13.829-28.943,28.942h-23.539l15.742-26.401z"/>
    <path d="m311.5,324.001h-144c-4.143,0-7.5,3.358-7.5,7.5s3.357,7.5 7.5,7.5h144c4.143,0 7.5-3.358 7.5-7.5s-3.357-7.5-7.5-7.5z"/>
    <path d="m135.5,324.001h-64c-4.143,0-7.5,3.358-7.5,7.5s3.357,7.5 7.5,7.5h64c4.143,0 7.5-3.358 7.5-7.5s-3.357-7.5-7.5-7.5z"/>
    <path d="m359.5,324.001h-16c-4.143,0-7.5,3.358-7.5,7.5s3.357,7.5 7.5,7.5h16c4.143,0 7.5-3.358 7.5-7.5s-3.357-7.5-7.5-7.5z"/>
    <path d="m295.5,356.001h-79.998c-4.143,0-7.5,3.358-7.5,7.5s3.357,7.5 7.5,7.5h79.998c4.143,0 7.5-3.358 7.5-7.5s-3.357-7.5-7.5-7.5z"/>
    <path d="m183.501,356.001h-16.001c-4.143,0-7.5,3.358-7.5,7.5s3.357,7.5 7.5,7.5h16.001c4.143,0 7.5-3.358 7.5-7.5s-3.357-7.5-7.5-7.5z"/>
    <path d="m416.166,137.929l-3.429,16.002c-0.867,4.05 1.713,8.037 5.763,8.905 0.529,0.114 1.058,0.168 1.579,0.168 3.46,0 6.571-2.41 7.326-5.93l3.429-16.002c0.867-4.05-1.713-8.037-5.763-8.905-4.037-0.867-8.036,1.711-8.905,5.762z"/>
  </g>
</svg>